<?xml version="1.0" encoding="UTF-8"?>
<svg width="128px" height="128px" viewBox="0 0 128 128" version="1.1" xmlns="http://www.w3.org/2000/svg" xmlns:xlink="http://www.w3.org/1999/xlink">
    <!-- Generator: Sketch 43.2 (39069) - http://www.bohemiancoding.com/sketch -->
    <title>RememberTheMilk</title>
    <desc>Created with Sketch.</desc>
    <defs></defs>
    <g id="Page-1" stroke="none" stroke-width="1" fill="none" fill-rule="evenodd">
        <g id="RememberTheMilk">
            <g id="Remember">
                <rect id="Rectangle" fill="#0A5ABC" x="0" y="0" width="128" height="128" rx="10"></rect>
                <g id="Cow" transform="translate(17.000000, 15.000000)">
                    <g id="Group-3" transform="translate(0.000000, 0.138527)" fill="#222124">
                        <path d="M72.6917082,27.9364008 C72.8425291,28.1917661 72.8779545,28.347434 72.9617828,28.3803166 C75.8614022,29.5144183 78.9016709,29.1348685 81.9016037,29.1922383 C82.1730813,29.1971357 82.2986485,29.0400685 82.3172381,28.7637143 C82.3537157,28.220451 81.9131784,28.3614266 81.6273201,28.2323447 C78.7101634,26.9145899 75.7340813,27.6390577 72.6917082,27.9364008 M23.4297455,25.5352677 C19.8742306,24.5799217 16.2762754,23.9883838 12.6029097,24.8055527 C12.0126037,24.9367334 11.0164843,24.9433799 11.1459097,25.9511982 C11.2504321,26.7634697 12.0522381,26.948522 12.7368948,27.0971936 C13.1879545,27.1947921 13.6649694,27.1884954 14.1311112,27.2003891 C17.3229022,27.2836452 20.356156,26.4199509 23.4297455,25.5352677 M27.942447,14.5587588 C28.435947,16.7048766 28.9147157,19.071378 29.5509694,21.3948521 C29.7656261,22.1777391 30.6130291,22.6209552 31.2085963,21.8023871 C32.2071709,20.4290117 33.6767978,19.9455668 35.1288873,19.5957513 C36.4248948,19.2830163 36.5220515,18.680984 36.2691634,17.6304882 C35.8857978,16.0391778 35.9840067,14.4583618 36.2681112,12.839416 C36.6655067,10.5736614 38.1730142,8.92008379 39.1901784,6.99609888 C39.7282231,5.97813595 40.4844321,4.91539665 39.5644246,3.77744703 C38.6682679,2.66818227 37.371559,2.52860591 36.0506485,2.72520219 C35.2376187,2.84623833 34.5066634,3.22508845 33.8244619,3.69104262 C30.0767381,6.25309089 28.6962007,10.094764 27.942447,14.5587588 M69.6461784,12.4024965 C69.6170664,8.31595253 67.0745067,5.13613019 62.745947,3.77289943 C60.3331634,3.0131003 59.9027978,3.28630615 60.5492231,5.65735519 C62.0237604,11.0669011 61.2805291,16.0185387 57.8909172,20.5182146 C57.3654993,21.2157466 57.6254022,21.432982 58.2690216,21.7625082 C59.5829172,22.4352032 61.0388649,23.0026039 62.0777754,23.9890834 C63.1226485,24.9808102 64.0342381,24.6348427 64.5635142,23.9488546 C67.1969172,20.5339563 69.5725216,16.9574433 69.6461784,12.4024965 M26.7983127,26.6861605 C24.0709097,27.6338105 21.3834918,28.5195432 18.6132978,29.1096818 C16.3748351,29.5861304 14.1198873,29.8901201 11.8379321,29.5445024 C9.55387239,29.1985349 8.65841716,27.6341603 9.48933507,25.4824455 C10.2627306,23.4794023 11.8951037,22.5037671 13.9062828,22.2172682 C18.7784993,21.5228846 23.4641187,22.3173154 28.0771336,24.1797328 C28.0087381,22.8787692 27.7113052,21.7488654 26.435641,21.0167016 C21.2116261,18.0177339 15.5965291,16.7430064 9.62191716,17.4401886 C6.57638731,17.7956011 3.78479776,18.917809 2.49755896,22.054604 C0.231387313,27.5767906 3.70132015,33.2102184 9.6471709,33.8286921 C14.4594097,34.329278 18.8626784,32.9524044 23.2056187,31.1197213 C25.1768127,30.2878602 26.7074694,29.2125275 26.7983127,26.6861605 M24.6426261,32.2870554 C24.4760216,34.8711421 24.3458948,37.1774753 23.7959246,39.441131 C22.7657828,43.682993 21.7114396,47.9238055 20.8657903,52.2037974 C19.3772231,59.738822 17.0461634,67.0926421 16.2015664,74.7693419 C15.3524097,82.4876697 17.8286784,87.6093176 24.1456187,90.4655606 C25.3634097,91.0161701 26.6404769,91.4649833 27.9277157,91.8284416 C32.1671858,93.0251602 36.5269619,93.4505357 40.9081336,93.6583261 C46.3857381,93.9178892 51.8728127,94.5440588 57.3405963,93.6051542 C67.6732306,91.8308903 73.6808127,84.5351395 72.715559,74.6829375 C71.3427381,60.6686314 70.2859396,46.6326367 69.3946933,32.5822997 C69.3515515,31.9029581 69.5956709,31.2627958 70.241044,30.9864416 C70.9232455,30.6939959 71.2403201,31.2418069 71.6008873,31.7395943 C72.0410739,32.3465241 72.5142306,33.0087247 73.1311933,33.3973696 C78.254544,36.6216185 83.7075963,37.2411417 89.3419843,34.9967258 C91.7866858,34.0231895 92.4702903,32.0044046 91.5765888,29.5147681 C90.3840515,26.1915214 87.7860739,24.3714317 84.5630664,23.4849994 C77.8824022,21.6481185 71.4574321,22.6090615 65.2250216,25.5566064 C67.2397082,27.8454488 67.5273201,28.076327 68.6795216,27.4557544 C72.643656,25.3201312 76.8147306,24.6831173 81.2688575,25.2596131 C83.6791858,25.5716485 85.3066485,27.7230134 84.1877679,29.4888817 C83.2926634,30.9021361 82.1359022,31.7717773 80.323947,31.7434422 C76.9438052,31.6902703 73.6127679,31.2638453 70.312947,30.604793 C69.4999172,30.4424786 69.3939918,30.5519709 69.0506112,31.334508 C67.798447,34.1844544 65.7718351,36.1546149 62.2896261,34.9502004 C61.0732381,34.5290226 59.9462903,33.9854094 58.8438948,33.3676353 C57.9926336,32.8908369 57.5394694,32.5903454 56.6755813,33.7129032 C54.8744993,36.0535183 52.2831858,37.3065572 49.2380067,36.9518443 C46.8178575,36.6698931 45.9178425,34.8669443 45.5502604,32.670803 C45.3882157,31.7056622 44.6505963,31.9096046 44.3447455,32.4574156 C43.1813201,34.5405665 41.0999918,34.9012262 39.0993351,35.3829221 C36.5262604,36.0020954 34.996656,35.3021147 33.8076261,32.9415601 C33.3527082,32.0379868 33.1254246,31.9085551 32.2057679,32.5462687 C29.3531485,34.5237753 27.1837828,34.4331731 24.6426261,32.2870554 M68.0492306,21.9839413 C71.9751336,20.7728803 75.958559,19.9910428 80.1019246,20.1729468 C83.6683127,20.3296641 87.0831784,20.9782219 90.0178724,23.1393817 C94.7785515,26.6445324 95.0268799,33.6118065 90.35985,36.4683994 C84.9597604,39.7738054 79.3267754,39.1882144 73.7207978,36.8734856 C73.1834545,36.6513528 72.6741709,36.361006 72.1484022,36.1105382 C72.1073649,36.0909485 72.0368649,36.1332762 71.9070888,36.1644098 C71.9070888,38.3860876 71.7987082,40.6329522 71.9260291,42.8665237 C72.4851187,52.6928394 73.4363425,62.4901204 74.4345664,72.2783062 C75.6962007,84.651628 68.3347381,94.2684042 56.0035515,96.0741515 C49.2927231,97.0567831 42.6022381,96.2801928 35.9138575,95.8338283 C31.231044,95.521793 26.655559,94.653551 22.370141,92.5910392 C17.1078948,90.0590751 14.5260515,85.8668869 14.3205142,80.0924834 C14.0865664,73.5316949 15.8504694,67.2906376 17.2709918,60.9890623 C19.0380515,53.1496984 20.8608799,45.3211787 22.4911485,37.4531298 C23.2912007,33.5915172 23.12635,33.5782242 19.4221187,34.805027 C16.4120142,35.8016511 13.3342157,36.4159271 10.1343575,36.3228761 C2.62382761,36.1042415 -1.44307537,30.6803531 0.469894776,23.398595 C1.73538731,18.5816364 5.75704403,15.3930687 11.1020664,14.9463543 C15.8578351,14.548964 20.4133276,15.3538893 24.7983575,17.1879717 C26.5678724,17.9281811 26.5931261,17.9400749 26.5622604,16.0580678 C26.4612455,9.92825188 29.0588724,5.16901284 33.9426634,1.58270497 C35.3488052,0.550049795 36.9317231,0.00153918793 38.7191261,0.285939139 C41.2122306,0.682629846 42.3167306,2.39427679 41.6822306,4.82724316 C41.0659694,7.19059626 39.345559,8.9861989 38.4301112,11.1924849 C37.46135,13.5268033 37.8485739,15.8730154 38.5020142,18.1758505 C38.7945366,19.2067566 39.8590515,18.8705839 40.4570739,18.6662917 C42.0098276,18.1356217 43.4682306,18.5218179 45.00485,18.5739404 C48.4611037,18.6914784 51.6820067,19.6853041 54.971656,20.4395062 C55.9569022,20.6651371 56.3704321,20.2079283 56.8320142,19.5810591 C59.0904694,16.5138773 60.093253,13.1752388 59.1111634,9.3804409 C58.7021933,7.79962494 58.3728425,6.19991894 58.5015664,4.54669118 C58.709559,1.86920381 60.4569769,0.595525802 63.0693351,1.22099581 C69.70335,2.8091579 72.6931112,8.0095142 70.9400813,14.8274171 C70.2947082,17.3373429 69.090947,19.5961011 67.9566336,21.8922897 C67.9124396,21.9615531 67.8678948,22.0308166 67.8237007,22.1000801 C67.8987604,22.0616004 67.9741709,22.0227708 68.0492306,21.9839413" id="Fill-1"></path>
                    </g>
                    <path d="M35.563497,76.4106759 C35.4905418,75.5347381 35.3867209,74.7584976 34.8697209,74.1792032 C34.3562284,73.6044565 33.850803,72.8012802 32.8560866,73.2899724 C31.8234896,73.796855 30.8887507,74.3964386 30.3612284,75.5151484 C29.7246239,76.8661356 29.1501015,78.2157236 30.0651985,79.6177839 C30.6530493,80.5182088 31.6172507,80.8771194 32.6642284,80.5927195 C34.3867433,80.1243166 35.1240119,78.7869722 35.4466985,77.1547334 C35.5028179,76.8713829 35.5368403,76.5841844 35.563497,76.4106759 M48.3429373,78.9615301 C48.3608254,79.13224 48.3755567,79.6576628 48.4783254,80.165245 C48.864497,82.0734882 50.1247284,82.7136505 51.7935791,81.7754455 C53.4887358,80.8225482 54.6321687,79.3743123 55.0295642,77.4531259 C55.3557582,75.8775572 54.651109,74.8777847 53.097303,74.4933375 C50.3516612,73.8139959 48.4330791,75.4784178 48.3429373,78.9615301 M35.0682433,48.2082055 C35.1717134,50.1325402 35.5477134,51.922196 37.1067806,53.2420496 C38.0611612,54.0501233 39.0765716,54.1732583 40.175109,53.5516363 C44.1259149,51.3149164 44.7611164,45.2480672 41.3581761,42.2347571 C39.3213925,40.4311087 37.0517134,40.9079071 36.062609,43.4692557 C35.4807209,44.9766105 35.1394448,46.5833128 35.0682433,48.2082055 M52.2267507,41.3056472 C50.8402507,41.099606 49.4141164,41.4375277 48.8869448,42.8255953 C47.7329896,45.8640922 47.2205493,49.0239751 48.4972657,52.1954018 C49.4439299,54.547211 51.4172284,55.1621866 53.5981687,53.8321883 C57.1845493,51.645492 58.3826985,47.0562632 56.2610343,43.4377723 C55.3950418,41.9615512 54.2572209,40.8368946 52.2267507,41.3056472 M24.6426612,32.4255823 C27.1838179,34.5717001 29.3531836,34.6623023 32.205803,32.6847956 C33.1254597,32.0474319 33.3527433,32.1765138 33.8076612,33.080087 C34.996691,35.4406416 36.5262955,36.1409721 39.0993701,35.521449 C41.1000269,35.0397531 43.1813552,34.6790934 44.3447806,32.5959425 C44.6506313,32.0481315 45.3882507,31.8441891 45.5502955,32.8093299 C45.9178776,35.0054712 46.8178925,36.80842 49.2380418,37.0903712 C52.2832209,37.4450841 54.8745343,36.1920452 56.6756164,33.8517799 C57.5395045,32.7288723 57.9926687,33.0293638 58.8439299,33.5061622 C59.9463254,34.1239363 61.0729224,34.6675495 62.2896612,35.0887273 C65.7718701,36.2931418 67.7984821,34.3229813 69.0506463,31.4730349 C69.3940269,30.6904978 69.4999522,30.5810055 70.3126313,30.7433199 C73.612803,31.4023722 76.9438403,31.8287972 80.3239821,31.8819692 C82.1359373,31.9103042 83.2926985,31.040663 84.187803,29.6274087 C85.3066836,27.8615403 83.6792209,25.7101754 81.2688925,25.39814 C76.8147657,24.821994 72.643691,25.4586581 68.6795567,27.5942813 C67.5273552,28.2148539 67.2397433,27.9839757 65.2250567,25.6951333 C71.4574672,22.7475884 77.8824373,21.7866454 84.5631015,23.6235263 C87.786109,24.5099586 90.3840866,26.3300483 91.5766239,29.653295 C92.4703254,32.1429315 91.7867209,34.1617164 89.3420194,35.1352527 C83.7076313,37.3796686 78.2545791,36.7601454 73.1312284,33.5358965 C72.5142657,33.1472516 72.041109,32.485051 71.6009224,31.8781212 C71.2403552,31.3803338 70.9232806,30.8325228 70.2410791,31.1249685 C69.595706,31.4013227 69.3515866,32.041485 69.3947284,32.7208266 C70.2859746,46.7711637 71.3427731,60.8071583 72.715594,74.8214644 C73.6808478,84.6736664 67.6732657,91.9694172 57.3406313,93.7436811 C51.8728478,94.6825857 46.3857731,94.0564161 40.9081687,93.796853 C36.526997,93.5890627 32.1672209,93.1636871 27.9277507,91.9669685 C26.6405119,91.6035102 25.3634448,91.154697 24.1456537,90.6040875 C17.8287134,87.7478445 15.3524448,82.6261966 16.2016015,74.9078688 C17.0461985,67.231169 19.3772582,59.8773489 20.8658254,52.3423243 C21.7114746,48.0623324 22.7658179,43.8215199 23.7959597,39.5796579 C24.3459299,37.3160022 24.4760567,35.009669 24.6426612,32.4255823" id="Fill-4" fill="#FCFCFC"></path>
                    <path d="M26.7982075,26.8247923 C26.7073642,29.3511594 25.1767075,30.4264921 23.2055134,31.2583532 C18.8625731,33.0910363 14.4596552,34.4679098 9.64706567,33.9673239 C3.70121493,33.3488502 0.231632836,27.7150726 2.49745373,22.1932359 C3.78469254,19.0564409 6.57663284,17.9338831 9.62181194,17.5788205 C15.5967746,16.8816383 21.2118716,18.1563657 26.4355358,21.1553335 C27.7112,21.8874972 28.0086328,23.0170513 28.0773791,24.3183647 C23.4640134,22.4559473 18.7787448,21.6611666 13.9065284,22.3559001 C11.8953493,22.6423989 10.2629761,23.6180342 9.48922985,25.6210774 C8.65831194,27.7727921 9.55411791,29.3371668 11.8381776,29.6831343 C14.1197821,30.0287519 16.3750806,29.7247623 18.6131925,29.2479639 C21.3833866,28.658175 24.0708045,27.7724423 26.7982075,26.8247923" id="Fill-6" fill="#FCFCFC"></path>
                    <path d="M69.6481075,12.5418979 C69.5723463,17.0961451 67.1970925,20.6723083 64.5633388,24.0872067 C64.0344134,24.7731947 63.1228239,25.119512 62.0779507,24.1274354 C61.0390403,23.1409559 59.5827418,22.5735553 58.269197,21.90121 C57.6252269,21.5716838 57.3656746,21.3540986 57.8910925,20.6565666 C61.2807045,16.1572405 62.0239358,11.205603 60.5490478,5.7957072 C59.9026224,3.42465816 60.3329881,3.1514523 62.7461224,3.91160125 C67.0746821,5.2744822 69.6172418,8.45430453 69.6481075,12.5418979" id="Fill-8" fill="#FCFCFC"></path>
                    <path d="M27.942447,14.6972508 C28.6962007,10.233256 30.0767381,6.39158282 33.8244619,3.82953455 C34.5066634,3.36358038 35.2376187,2.98473026 36.0506485,2.86369412 C37.371559,2.66709785 38.6682679,2.80667421 39.5644246,3.91593896 C40.4844321,5.05388858 39.7282231,6.11662788 39.1901784,7.13459081 C38.1730142,9.05857572 36.6655067,10.7121533 36.2681112,12.9779079 C35.9840067,14.5968537 35.8857978,16.1776697 36.2691634,17.7689801 C36.5220515,18.8194759 36.4248948,19.4218581 35.1288873,19.7342433 C33.6767978,20.0840587 32.2071709,20.5675036 31.2085963,21.940879 C30.6130291,22.7594472 29.7656261,22.316231 29.5509694,21.5333441 C28.9147157,19.2098699 28.435947,16.8433685 27.942447,14.6972508" id="Fill-10" fill="#FCFCFC"></path>
                    <path d="M23.4298507,25.6736546 C20.3559104,26.5586877 17.3230075,27.4220322 14.1312164,27.3391259 C13.6650746,27.3268824 13.1880597,27.3335289 12.737,27.2355806 C12.0523433,27.0872588 11.2505373,26.9018567 11.1460149,26.0895852 C11.0165896,25.0821167 12.0123582,25.0754702 12.6030149,24.9439396 C16.2763806,24.1267708 19.8743358,24.7183087 23.4298507,25.6736546" id="Fill-12" fill="#FCFCFC"></path>
                    <path d="M72.6917082,28.0749277 C75.7340813,27.7775846 78.7101634,27.0531168 81.6273201,28.3708716 C81.9131784,28.4999535 82.3537157,28.3589779 82.3172381,28.9022413 C82.2986485,29.1785954 82.1730813,29.3356626 81.9016037,29.3307652 C78.9016709,29.2733954 75.8614022,29.6529452 72.9617828,28.5188435 C72.8779545,28.4859609 72.8425291,28.330293 72.6917082,28.0749277" id="Fill-14" fill="#FCFCFC"></path>
                    <path d="M68.1794173,22.1753695 C68.0610879,22.2364818 67.9422055,22.2970436 67.8238761,22.358156 C67.8935467,22.2491448 67.9632173,22.1401335 68.0328879,22.0305717 L68.1794173,22.1753695" id="Fill-16" fill="#015BB5"></path>
                    <path d="M55.322753,49.0653582 C55.5388127,46.8436804 54.873447,44.9574756 52.8608649,43.7918905 C51.2319993,42.8480885 50.0555963,43.4466227 49.7553575,45.2852526 C49.5796336,46.363034 49.4368799,47.460405 49.8269097,48.5528786 C52.2481112,46.3892701 54.1396858,46.5879653 55.322753,49.0653582 M52.2270664,41.3057522 C54.2571858,40.8369995 55.3950067,41.9613063 56.2609993,43.4378773 C58.3830142,47.0560184 57.1845142,51.6452471 53.5981336,53.8322932 C51.4171933,55.1622915 49.4438948,54.547316 48.4972306,52.1955068 C47.2205142,49.02408 47.7329545,45.8638474 48.8869097,42.8257003 C49.4140813,41.4376326 50.8402157,41.0997109 52.2270664,41.3057522" id="Fill-18" fill="#222124"></path>
                    <path d="M37.1452575,48.1952973 C38.665041,46.927916 40.0943321,46.9342126 41.7133769,48.0410287 C41.3991082,45.9068047 40.4071978,44.5379769 38.6478545,43.7197586 C38.1333097,43.4804848 37.5493172,43.3590989 37.4097201,44.1070043 C37.1719142,45.3796328 36.5665261,46.6421167 37.1452575,48.1952973 M35.0681381,48.2082405 C35.1393396,46.5833477 35.4806157,44.9766454 36.0628545,43.4692907 C37.0516082,40.9079421 39.3216381,40.4311436 41.3580709,42.234792 C44.7610112,45.2481022 44.1261604,51.3146015 40.1750037,53.5513215 C39.0768172,54.1732933 38.061056,54.0501583 37.1066754,53.2420846 C35.547959,51.922231 35.1716082,50.1325752 35.0681381,48.2082405" id="Fill-20" fill="#222124"></path>
                    <path d="M50.1248336,77.8390773 C50.2230425,78.4152233 49.9883933,79.5968999 51.2131993,79.7571154 C52.2998112,79.8991404 53.1777291,79.137942 53.2559455,78.0891953 C53.3408261,76.9498465 52.2152813,76.9012221 51.380856,76.7584974 C50.7645948,76.6528532 50.0304828,76.4796945 50.1248336,77.8390773 M48.3426918,78.961635 C48.4331843,75.4785227 50.3517664,73.8141009 53.0974082,74.4934425 C54.6512142,74.8778896 55.3555127,75.8776621 55.0296694,77.4532309 C54.6322739,79.3740674 53.4884903,80.8226532 51.7936843,81.7755504 C50.1248336,82.7137554 48.8646022,82.0735932 48.4784306,80.1650002 C48.3756619,79.6577678 48.3609306,79.132345 48.3426918,78.961635" id="Fill-22" fill="#222124"></path>
                    <path d="M33.831056,77.6533953 C33.6535784,76.5780626 33.2961679,75.7031742 32.3158321,75.5492554 C31.5599739,75.430668 31.4466828,76.2663771 31.411959,76.7921497 C31.3439142,77.8209569 32.1166082,78.1875634 32.980847,78.3138468 C33.5437948,78.3960534 33.8538545,78.0826188 33.831056,77.6533953 M35.5633918,76.410501 C35.5367351,76.5840095 35.5027127,76.8715578 35.446944,77.1545585 C35.1239067,78.7871471 34.3869888,80.1244915 32.6644739,80.5925446 C31.6171455,80.8772943 30.652944,80.5180339 30.0650933,79.6179588 C29.1499963,78.2155487 29.7245187,76.8659607 30.3614739,75.5153233 C30.8886455,74.3962637 31.8233843,73.7970299 32.8559813,73.2897975 C33.8506978,72.8014551 34.3561231,73.6046314 34.8696157,74.1793782 C35.3866157,74.7583227 35.4904366,75.534913 35.5633918,76.410501" id="Fill-24" fill="#222124"></path>
                    <path d="M55.322753,49.0653582 C54.1396858,46.5879653 52.2481112,46.3892701 49.8269097,48.5528786 C49.4368799,47.460405 49.5796336,46.363034 49.7553575,45.2852526 C50.0555963,43.4466227 51.2319993,42.8480885 52.8608649,43.7918905 C54.873447,44.9574756 55.5388127,46.8436804 55.322753,49.0653582" id="Fill-26" fill="#FCFCFC"></path>
                    <path d="M37.1452575,48.1952973 C36.5665261,46.6421167 37.1719142,45.3796328 37.4097201,44.1070043 C37.5493172,43.3590989 38.1333097,43.4804848 38.6478545,43.7197586 C40.4071978,44.5379769 41.3991082,45.9068047 41.7133769,48.0410287 C40.0943321,46.9342126 38.665041,46.927916 37.1452575,48.1952973" id="Fill-28" fill="#FCFCFC"></path>
                    <path d="M50.1248336,77.8390773 C50.0304828,76.4796945 50.7645948,76.6528532 51.380856,76.7584974 C52.2152813,76.9012221 53.3408261,76.9498465 53.2559455,78.0891953 C53.1777291,79.137942 52.2998112,79.8991404 51.2131993,79.7571154 C49.9883933,79.5968999 50.2230425,78.4152233 50.1248336,77.8390773" id="Fill-30" fill="#FCFCFC"></path>
                    <path d="M33.831056,77.6533953 C33.8538545,78.0826188 33.5437948,78.3960534 32.980847,78.3138468 C32.1166082,78.1875634 31.3439142,77.8209569 31.411959,76.7921497 C31.4466828,76.2663771 31.5599739,75.430668 32.3158321,75.5492554 C33.2961679,75.7031742 33.6535784,76.5780626 33.831056,77.6533953" id="Fill-32" fill="#FCFCFC"></path>
                </g>
            </g>
        </g>
    </g>
</svg>