<?xml version="1.0" encoding="UTF-8"?>
<svg width="128px" height="128px" viewBox="0 0 128 128" version="1.1" xmlns="http://www.w3.org/2000/svg" xmlns:xlink="http://www.w3.org/1999/xlink">
    <!-- Generator: Sketch 43.2 (39069) - http://www.bohemiancoding.com/sketch -->
    <title>Todoist</title>
    <desc>Created with Sketch.</desc>
    <defs></defs>
    <g id="Page-1" stroke="none" stroke-width="1" fill="none" fill-rule="evenodd">
        <g id="Todoist">
            <g>
                <rect id="Rectangle" fill="#E44332" x="0" y="0" width="128" height="128" rx="10"></rect>
                <path d="M27.3804238,59.9718 C29.639218,58.668675 78.0185975,30.801925 79.1287633,30.159925 C80.2366814,29.5198 80.2922521,27.555675 79.0527126,26.84755 C77.8117994,26.139425 75.4563497,24.799925 74.5797058,24.28655 C73.687577,23.76555 72.0826443,23.4758 70.5943477,24.333925 C69.9764511,24.6908 28.6300784,48.487925 27.2480531,49.274175 C25.5939184,50.2153 23.5469175,50.22755 21.8982775,49.27255 C20.5966736,48.5183 0.0624764878,36.57455 0.0624764878,36.57455 L0.0624764878,47.36905 C5.37778576,50.4673 18.5931301,58.171675 21.7960023,59.98155 C23.7075106,61.061925 25.5373487,61.035175 27.3804238,59.9718" id="Fill-3" fill="#FFFFFF"></path>
                <path d="M27.3804238,81.539 C29.639218,80.235875 78.0185975,52.369125 79.1287633,51.727125 C80.2366814,51.087 80.2922521,49.122875 79.0527126,48.41475 C77.8117994,47.706625 75.4563497,46.367125 74.5797058,45.85375 C73.687577,45.33275 72.0826443,45.043 70.5943477,45.901125 C69.9764511,46.258125 28.6300784,70.055125 27.2480531,70.841375 C25.5939184,71.7825 23.5469175,71.79475 21.8982775,70.83975 C20.5966736,70.0855 0.0624764878,58.14175 0.0624764878,58.14175 L0.0624764878,68.93625 C5.37778576,72.0345 18.5931301,79.738875 21.7960023,81.54875 C23.7075106,82.629125 25.5373487,82.602375 27.3804238,81.539" id="Fill-5" fill="#FFFFFF"></path>
                <path d="M27.3804238,103.106213 C29.639218,101.803088 78.0185975,73.9363375 79.1287633,73.2943375 C80.2366814,72.6542125 80.2922521,70.6900875 79.0527126,69.9819625 C77.8117994,69.2738375 75.4563497,67.9343375 74.5797058,67.4209625 C73.687577,66.8999625 72.0826443,66.6102125 70.5943477,67.4683375 C69.9764511,67.8252125 28.6300784,91.6223375 27.2480531,92.4085875 C25.5939184,93.3497125 23.5469175,93.3619625 21.8982775,92.4069625 C20.5966736,91.6527125 0.0624764878,79.7089625 0.0624764878,79.7089625 L0.0624764878,90.5034625 C5.37778576,93.6017125 18.5931301,101.306088 21.7960023,103.115963 C23.7075106,104.196338 25.5373487,104.169588 27.3804238,103.106213" id="Fill-7" fill="#FFFFFF"></path>
            </g>
        </g>
    </g>
</svg>