<svg viewBox="0 0 512 399" xmlns="http://www.w3.org/2000/svg">
  <g fill="none" fill-rule="evenodd">
    <path d="M467.868 312.972c24.451 0 44.132 19.365 44.132 42.902v42.903s-12.822-1.49-17.295-8.938c-7.455 5.66-16.699 8.938-26.837 8.938-24.452 0-44.132-19.068-44.132-42.903 0-23.537 19.68-42.902 44.132-42.902zm-.356 66.658c13.477 0 24.557-10.69 24.557-23.756 0-13.065-11.08-23.756-24.557-23.756-13.477 0-24.557 10.69-24.557 23.756s11.08 23.756 24.557 23.756zm-50.555-63.655c5.365 2.073 8.972 4.309 9.822 5.38l-8.743 18c-4.194-3.562-10.965-6.49-16.957-6.49-13.482 0-24.268 10.39-24.268 23.455v42.457H356.44v-77.789s8.388.297 13.781 4.157c7.79-7.72 18.875-12.173 30.859-12.173 5.495 0 10.514.93 15.878 3.003zm-111.414 82.802c-24.374 0-44.132-18.62-44.132-42.903 0-24.282 19.758-42.902 44.132-42.902 24.373 0 44.132 18.62 44.132 42.902s-19.759 42.903-44.132 42.903zm-24.913-42.903c0 13.066 11.08 23.756 24.554 23.756 13.774 0 24.854-10.69 24.554-23.756 0-13.065-11.079-23.756-24.554-23.756-13.475 0-24.554 10.69-24.554 23.756zm-25.998-39.899c5.365 2.073 8.972 4.309 9.822 5.38l-8.743 18c-4.194-3.562-10.965-6.49-16.957-6.49-13.482 0-24.268 10.39-24.268 23.455v42.457h-20.372v-77.789s8.388.297 13.781 4.157c7.79-7.72 18.875-12.173 30.859-12.173 5.495 0 10.514.93 15.878 3.003zm-68.973 53.286v-12.566c0 23.295-20.043 42.221-44.47 42.221s-44.47-18.926-44.47-42.22c0-8.348-.797-14.751-2.389-19.212-2.388-6.69-7.478-14.977-13.204-20.86-.902-.927 13.551 3.265 15.593 3.925 2.04.66 21.295 5.282 21.295 26.246v9.9c0 12.812 10.335 23.003 23.175 23.003s23.175-10.19 23.175-23.003v-9.9c.94-17.47 16.886-23.876 20.957-25.914l.338 35.814v12.566zM44.132 310.945c24.452 0 44.132 19.366 44.132 42.902v42.903s-12.822-1.49-17.295-8.938c-7.455 5.66-16.698 8.938-26.837 8.938C19.681 396.75 0 377.682 0 353.847c0-23.536 19.68-42.902 44.132-42.902zm.356 66.658c13.477 0 24.557-10.69 24.557-23.756 0-13.065-11.08-23.756-24.557-23.756-13.477 0-24.557 10.69-24.557 23.756s11.08 23.756 24.557 23.756z" fill="#4D4D4D" fill-rule="nonzero"/>
    <g transform="translate(123)">
      <circle fill="#DFE0E1" cx="133.5" cy="133.5" r="133.5"/>
      <path d="M146.672 55.764l-.273-.586c-2.203-4.735-6.777-7.65-11.666-8.003-.056-.005-.112-.012-.166-.014-.257-.017-.513-.012-.77-.012-.258 0-.514-.005-.768.012-.057.002-.113.01-.17.014-4.888.352-9.462 3.268-11.665 8.003l-.273.583-54.338 116.812-6.671 14.337c-3.231 6.946-.19 15.271 6.756 18.502 6.045 2.812 13.135.87 17-4.26.328-.504.638-1.016.979-1.508.183-.322.364-.646.522-.987l22.901-49.227 25.728-55.304 12.653-27.201c1.7-3.654 1.648-7.686.22-11.161" fill="#4D4D4D" opacity=".45"/>
      <path d="M207.723 186.91l-6.671-14.337-54.338-116.809-.273-.585c-2.204-4.738-6.777-7.651-11.666-8.004-.056-.004-.113-.012-.167-.014-.256-.016-.512-.012-.769-.012-.256 0-.515-.004-.769.012-.056.002-.113.01-.167.014-4.89.353-9.464 3.266-11.668 8.004l-.27.583c-1.43 3.477-1.482 7.507.22 11.163l12.654 27.201 25.725 55.305 22.901 49.226c.16.341.34.666.522.988.341.491.652 1.004.979 1.505 3.866 5.13 10.955 7.072 17.003 4.26 6.944-3.228 9.985-11.554 6.754-18.5" fill="#4D4D4D" opacity=".55"/>
      <path d="M66.658 205.41c6.048 2.813 13.14.87 17.01-4.26.325-.5.638-1.013.979-1.505 10.8-15.56 28.787-25.757 49.171-25.757 20.383 0 38.37 10.197 49.17 25.757.34.492.654 1.004.98 1.505 3.869 5.13 10.96 7.073 17.009 4.26 6.384-2.967 9.453-10.23 7.41-16.775-11.577-23.865-38.342-40.97-69.978-42.486-.226-.012-.447-.026-.673-.035a98.304 98.304 0 0 0-3.917-.085c-1.315 0-2.622.033-3.92.085-.224.009-.447.023-.67.035-31.64 1.516-58.404 18.621-69.98 42.486-2.044 6.545 1.027 13.808 7.409 16.776z" fill="#4D4D4D" opacity=".65"/>
      <path d="M208.387 188.635c-11.576-23.864-38.34-40.97-69.98-42.488-.223-.01-.447-.024-.67-.033a98.422 98.422 0 0 0-3.92-.085c-1.315 0-2.62.033-3.918.085-.225.01-.446.024-.672.033a92.523 92.523 0 0 0-21.356 3.548 67.908 67.908 0 0 1 9.384-.665c31.569 0 58.138 21.694 66.126 51.22l.586.9c3.868 5.13 10.962 7.073 17.01 4.261 6.382-2.967 9.453-10.23 7.41-16.776" fill="#4D4D4D" opacity=".75"/>
    </g>
  </g>
</svg>