<svg viewBox="0 0 200 47" xmlns="http://www.w3.org/2000/svg">
  <g fill="#FFF" fill-rule="evenodd">
    <path d="M187.983 12.392c6.658 0 12.017 5.254 12.017 11.64v11.64s-3.491-.405-4.71-2.426c-2.029 1.536-4.546 2.425-7.307 2.425-6.657 0-12.016-5.173-12.016-11.64 0-6.385 5.359-11.64 12.016-11.64zm-.096 18.085c3.669 0 6.686-2.9 6.686-6.446 0-3.544-3.017-6.445-6.686-6.445-3.67 0-6.687 2.9-6.687 6.445 0 3.545 3.017 6.446 6.687 6.446zm-13.766-17.27c1.46.562 2.443 1.169 2.675 1.459l-2.381 4.884c-1.142-.967-2.986-1.761-4.617-1.761-3.671 0-6.608 2.819-6.608 6.363v11.52h-5.547V14.566s2.284.08 3.752 1.127c2.121-2.094 5.14-3.302 8.403-3.302 1.496 0 2.863.252 4.323.815zM143.785 35.67c-6.637 0-12.017-5.052-12.017-11.64 0-6.587 5.38-11.64 12.017-11.64 6.636 0 12.016 5.053 12.016 11.64 0 6.588-5.38 11.64-12.016 11.64zM137 24.031c0 3.545 3.017 6.446 6.686 6.446 3.75 0 6.767-2.9 6.686-6.446 0-3.544-3.017-6.445-6.686-6.445-3.67 0-6.686 2.9-6.686 6.445zm-7.079-10.824c1.461.562 2.443 1.169 2.675 1.459l-2.381 4.884c-1.142-.967-2.986-1.761-4.617-1.761-3.671 0-6.608 2.819-6.608 6.363v11.52h-5.547V14.566s2.284.08 3.752 1.127c2.121-2.094 5.14-3.302 8.403-3.302 1.496 0 2.863.252 4.323.815zm-18.78 14.456v-3.409c0 6.32-5.458 11.455-12.109 11.455s-12.109-5.135-12.109-11.455c0-2.264-.216-4.002-.65-5.212-.65-1.815-2.036-4.063-3.595-5.66-.246-.251 3.69.886 4.245 1.065.556.18 5.799 1.433 5.799 7.121v2.686c0 3.476 2.814 6.241 6.31 6.241 3.496 0 6.31-2.765 6.31-6.24v-2.687c.256-4.74 4.598-6.478 5.707-7.03l.092 9.716v3.41zM72.606 11.842c6.658 0 12.016 5.254 12.016 11.64v11.64s-3.49-.405-4.709-2.426c-2.03 1.536-4.547 2.425-7.307 2.425-6.658 0-12.017-5.173-12.017-11.64 0-6.385 5.36-11.64 12.017-11.64zm.097 18.085c3.67 0 6.686-2.9 6.686-6.445 0-3.545-3.017-6.446-6.686-6.446-3.67 0-6.687 2.9-6.687 6.446 0 3.544 3.017 6.445 6.687 6.445z" fill-rule="nonzero"/>
    <path d="M23.527 46.908C10.533 46.908 0 36.408 0 23.454 0 10.501 10.533 0 23.527 0 36.52 0 47.053 10.5 47.053 23.454c0 12.953-10.533 23.454-23.526 23.454zm-4.505-20.612l.023-.048 4.533-9.718.009-.018.008.018 4.533 9.718.022.048a16.363 16.363 0 0 0-3.754-.618c-.04-.002-.079-.005-.119-.006a17.395 17.395 0 0 0-1.381 0c-.04.001-.08.004-.119.006a16.364 16.364 0 0 0-3.755.618zM10.33 33.86a2.45 2.45 0 0 0 3.098 2.363 2.468 2.468 0 0 0 1.318-.887c.057-.088.112-.178.172-.264a10.543 10.543 0 0 1 8.669-4.524c3.593 0 6.764 1.791 8.668 4.524.06.086.115.176.172.264a2.466 2.466 0 0 0 1.967.975h.003a2.449 2.449 0 0 0 2.217-3.478l-1.175-2.519-9.576-20.527-.048-.103A2.459 2.459 0 0 0 23.76 8.28l-.03-.002a1.439 1.439 0 0 0-.095-.003h-.098c-.031 0-.063 0-.094.003l-.03.002a2.46 2.46 0 0 0-2.056 1.406l-.048.103-9.575 20.527-1.176 2.52a2.419 2.419 0 0 0-.228 1.026z"/>
    <path d="M25.871 9.778l-.048-.103a2.466 2.466 0 0 0-2.061-1.409l-.03-.002c-.045-.003-.09-.002-.136-.002-.045 0-.09-.001-.136.002l-.03.002a2.466 2.466 0 0 0-2.06 1.41l-.049.102-9.6 20.565-1.18 2.524a2.455 2.455 0 0 0 1.194 3.257 2.476 2.476 0 0 0 3.004-.75c.058-.088.113-.179.173-.265a2.31 2.31 0 0 0 .092-.174l4.046-8.666 4.546-9.737 2.236-4.789c.3-.643.291-1.353.04-1.965" opacity=".25"/>
    <path d="M36.604 32.867l-1.179-2.524-9.6-20.565-.049-.103a2.465 2.465 0 0 0-2.061-1.409l-.03-.002c-.045-.003-.09-.002-.135-.002-.046 0-.091-.001-.136.002l-.03.002a2.465 2.465 0 0 0-2.062 1.41l-.047.102a2.434 2.434 0 0 0 .039 1.965l2.236 4.79 4.545 9.736 4.046 8.666c.029.06.06.118.093.174.06.087.115.177.172.265a2.476 2.476 0 0 0 3.005.75 2.455 2.455 0 0 0 1.193-3.257" opacity=".35"/>
    <path d="M11.73 36.125a2.475 2.475 0 0 0 3-.748c.057-.088.112-.178.172-.264a10.549 10.549 0 0 1 8.67-4.52c3.595 0 6.767 1.79 8.671 4.52.06.086.115.176.173.264a2.474 2.474 0 0 0 3 .748 2.446 2.446 0 0 0 1.306-2.944c-2.042-4.189-6.761-7.19-12.34-7.457l-.118-.006a17.416 17.416 0 0 0-1.382 0l-.118.006c-5.58.266-10.299 3.268-12.34 7.457a2.447 2.447 0 0 0 1.306 2.944z" opacity=".45"/>
    <path d="M36.722 33.18c-2.045-4.188-6.772-7.19-12.36-7.456l-.118-.006a17.493 17.493 0 0 0-1.385 0l-.118.006a16.436 16.436 0 0 0-3.772.622 12.068 12.068 0 0 1 1.657-.116c5.576 0 10.268 3.807 11.68 8.99l.103.157a2.481 2.481 0 0 0 3.004.748 2.446 2.446 0 0 0 1.309-2.944" opacity=".55"/>
  </g>
</svg>