<svg viewBox="0 0 267 267" xmlns="http://www.w3.org/2000/svg">
  <g fill="none" fill-rule="evenodd">
    <circle fill="#DFE0E1" cx="133.5" cy="133.5" r="133.5"/>
    <path d="M146.672 55.764l-.273-.586c-2.203-4.735-6.777-7.65-11.666-8.003-.056-.005-.112-.012-.166-.014-.257-.017-.513-.012-.77-.012-.258 0-.514-.005-.768.012-.057.002-.113.01-.17.014-4.888.352-9.462 3.268-11.665 8.003l-.273.583-54.338 116.812-6.671 14.337c-3.231 6.946-.19 15.271 6.756 18.502 6.045 2.812 13.135.87 17-4.26.328-.504.638-1.016.979-1.508.183-.322.364-.646.522-.987l22.901-49.227 25.728-55.304 12.653-27.201c1.7-3.654 1.648-7.686.22-11.161" fill="#4D4D4D" opacity=".45"/>
    <path d="M207.723 186.91l-6.671-14.337-54.338-116.809-.273-.585c-2.204-4.738-6.777-7.651-11.666-8.004-.056-.004-.113-.012-.167-.014-.256-.016-.512-.012-.769-.012-.256 0-.515-.004-.769.012-.056.002-.113.01-.167.014-4.89.353-9.464 3.266-11.668 8.004l-.27.583c-1.43 3.477-1.482 7.507.22 11.163l12.654 27.201 25.725 55.305 22.901 49.226c.16.341.34.666.522.988.341.491.652 1.004.979 1.505 3.866 5.13 10.955 7.072 17.003 4.26 6.944-3.228 9.985-11.554 6.754-18.5" fill="#4D4D4D" opacity=".55"/>
    <path d="M66.658 205.41c6.048 2.813 13.14.87 17.01-4.26.325-.5.638-1.013.979-1.505 10.8-15.56 28.787-25.757 49.171-25.757 20.383 0 38.37 10.197 49.17 25.757.34.492.654 1.004.98 1.505 3.869 5.13 10.96 7.073 17.009 4.26 6.384-2.967 9.453-10.23 7.41-16.775-11.577-23.865-38.342-40.97-69.978-42.486-.226-.012-.447-.026-.673-.035a98.304 98.304 0 0 0-3.917-.085c-1.315 0-2.622.033-3.92.085-.224.009-.447.023-.67.035-31.64 1.516-58.404 18.621-69.98 42.486-2.044 6.545 1.027 13.808 7.409 16.776z" fill="#4D4D4D" opacity=".65"/>
    <path d="M208.387 188.635c-11.576-23.864-38.34-40.97-69.98-42.488-.223-.01-.447-.024-.67-.033a98.422 98.422 0 0 0-3.92-.085c-1.315 0-2.62.033-3.918.085-.225.01-.446.024-.672.033a92.523 92.523 0 0 0-21.356 3.548 67.908 67.908 0 0 1 9.384-.665c31.569 0 58.138 21.694 66.126 51.22l.586.9c3.868 5.13 10.962 7.073 17.01 4.261 6.382-2.967 9.453-10.23 7.41-16.776" fill="#4D4D4D" opacity=".75"/>
  </g>
</svg>